<svg id="svg" version="1.1" width="400" height="600" viewBox="0 0 400 600" xmlns="http://www.w3.org/2000/svg" xmlns:xlink="http://www.w3.org/1999/xlink" ><g id="svgg"><path id="path0" d="M185.875 0.399 C 183.938 0.849,165.227 3.750,164.265 3.750 C 162.475 3.750,151.347 6.119,144.750 7.904 C 142.603 8.485,138.932 9.622,133.375 11.427 C 131.661 11.984,128.310 13.258,126.625 13.993 C 126.350 14.113,125.803 14.281,125.410 14.367 C 124.672 14.528,124.029 14.803,120.029 16.660 C 118.739 17.260,117.576 17.750,117.444 17.750 C 117.313 17.750,114.566 19.072,111.341 20.688 C 103.908 24.411,103.067 24.853,100.539 26.375 C 99.397 27.063,97.929 27.906,97.277 28.250 C 96.624 28.594,95.142 29.499,93.983 30.262 C 92.824 31.024,91.217 32.037,90.412 32.512 C 89.607 32.986,88.655 33.646,88.295 33.976 C 87.935 34.307,87.126 34.881,86.497 35.252 C 85.868 35.623,84.514 36.555,83.489 37.324 C 82.464 38.093,80.454 39.600,79.023 40.673 C 77.592 41.747,75.756 43.188,74.944 43.875 C 74.131 44.563,73.085 45.406,72.620 45.750 C 69.595 47.982,57.056 59.966,53.459 64.062 C 52.725 64.897,51.664 66.054,51.101 66.632 C 50.538 67.210,49.754 68.120,49.358 68.654 C 48.963 69.188,48.098 70.180,47.436 70.858 C 46.773 71.535,45.990 72.520,45.695 73.045 C 45.399 73.570,45.075 74.000,44.975 74.000 C 44.759 74.000,39.753 80.486,38.535 82.344 C 38.073 83.049,37.435 83.906,37.116 84.250 C 36.798 84.594,36.107 85.557,35.581 86.392 C 35.055 87.226,33.928 88.969,33.077 90.267 C 29.881 95.133,28.750 96.936,28.369 97.768 C 28.153 98.239,27.477 99.412,26.867 100.375 C 26.257 101.338,25.328 102.969,24.801 104.000 C 24.275 105.031,23.260 106.908,22.547 108.171 C 21.834 109.434,21.250 110.573,21.250 110.701 C 21.250 110.830,20.462 112.452,19.500 114.305 C 18.537 116.159,17.750 117.809,17.750 117.973 C 17.750 118.137,17.424 118.969,17.025 119.823 C 15.142 123.854,14.649 125.008,14.063 126.750 C 13.716 127.781,13.181 129.188,12.873 129.875 C 11.786 132.305,7.250 145.831,7.250 146.642 C 7.250 146.859,6.695 149.081,6.017 151.580 C 4.696 156.446,4.188 158.759,3.012 165.250 C 0.560 178.776,0.016 185.185,0.016 200.500 C 0.016 215.818,0.629 223.008,2.989 235.375 C 3.383 237.438,3.776 239.631,3.863 240.250 C 4.059 241.641,5.484 247.353,6.390 250.375 C 6.760 251.613,7.114 252.963,7.176 253.375 C 7.314 254.290,9.623 261.411,10.277 262.939 C 10.537 263.545,10.753 264.229,10.756 264.458 C 10.759 264.687,11.247 266.056,11.840 267.500 C 12.818 269.879,13.378 271.268,14.780 274.788 C 15.035 275.428,15.795 277.116,16.470 278.538 C 17.145 279.961,17.780 281.406,17.880 281.750 C 17.981 282.094,18.781 283.716,19.657 285.356 C 20.533 286.995,21.250 288.438,21.250 288.562 C 21.250 288.896,24.250 294.470,24.519 294.637 C 24.646 294.715,24.750 294.976,24.750 295.217 C 24.750 295.458,25.154 296.323,25.647 297.140 C 26.140 297.957,27.276 300.031,28.170 301.750 C 29.064 303.469,29.940 305.044,30.117 305.250 C 30.294 305.456,30.916 306.525,31.499 307.625 C 32.780 310.043,33.320 310.977,34.414 312.667 C 34.874 313.378,35.250 314.045,35.250 314.150 C 35.250 314.427,38.266 319.481,38.528 319.643 C 38.650 319.718,38.750 319.959,38.750 320.177 C 38.750 320.396,39.295 321.430,39.961 322.475 C 40.628 323.520,41.657 325.275,42.249 326.375 C 42.840 327.475,43.689 328.938,44.133 329.625 C 44.578 330.313,45.334 331.606,45.813 332.500 C 47.043 334.794,47.771 336.028,48.322 336.750 C 48.584 337.094,49.124 338.050,49.522 338.875 C 49.919 339.700,50.745 341.163,51.356 342.125 C 51.968 343.087,52.703 344.374,52.991 344.984 C 53.278 345.594,53.891 346.663,54.353 347.359 C 54.816 348.056,55.674 349.525,56.260 350.625 C 56.847 351.725,57.805 353.361,58.389 354.261 C 58.973 355.161,59.621 356.286,59.830 356.761 C 60.039 357.236,60.781 358.525,61.478 359.625 C 62.175 360.725,63.082 362.300,63.493 363.125 C 63.904 363.950,64.856 365.618,65.609 366.832 C 66.362 368.046,67.044 369.244,67.123 369.494 C 67.203 369.745,67.731 370.664,68.296 371.538 C 68.862 372.411,69.970 374.306,70.760 375.750 C 71.549 377.194,72.601 378.991,73.097 379.744 C 73.594 380.497,74.006 381.229,74.013 381.369 C 74.020 381.510,74.694 382.694,75.512 384.000 C 76.329 385.306,77.212 386.825,77.473 387.375 C 77.734 387.925,78.575 389.387,79.342 390.625 C 80.109 391.863,80.961 393.360,81.236 393.953 C 81.511 394.546,82.083 395.546,82.508 396.175 C 82.932 396.805,83.797 398.288,84.428 399.472 C 85.060 400.656,86.055 402.361,86.639 403.261 C 87.223 404.161,87.865 405.286,88.067 405.761 C 88.268 406.236,89.029 407.581,89.757 408.750 C 90.485 409.919,91.402 411.494,91.795 412.250 C 92.188 413.006,92.825 414.131,93.211 414.750 C 93.596 415.369,94.454 416.887,95.117 418.125 C 95.780 419.363,96.573 420.712,96.879 421.125 C 97.185 421.538,97.971 422.887,98.625 424.125 C 99.280 425.363,100.182 426.938,100.631 427.625 C 101.079 428.313,101.663 429.325,101.930 429.875 C 102.196 430.425,103.108 432.023,103.957 433.426 C 104.806 434.829,105.500 436.077,105.500 436.200 C 105.500 436.322,105.934 437.094,106.465 437.916 C 106.996 438.737,108.128 440.672,108.981 442.215 C 109.833 443.758,110.849 445.494,111.238 446.073 C 111.626 446.652,112.185 447.631,112.478 448.250 C 112.772 448.869,113.512 450.163,114.124 451.125 C 114.736 452.087,115.579 453.550,115.997 454.375 C 116.415 455.200,117.310 456.775,117.985 457.875 C 118.660 458.975,119.496 460.464,119.841 461.184 C 120.186 461.904,120.744 462.860,121.081 463.309 C 121.418 463.758,122.228 465.137,122.883 466.375 C 123.538 467.613,124.438 469.188,124.883 469.875 C 125.328 470.563,126.171 472.025,126.755 473.125 C 127.340 474.225,128.309 475.888,128.909 476.820 C 129.509 477.753,130.000 478.615,130.000 478.736 C 130.000 478.857,130.763 480.231,131.695 481.790 C 132.627 483.349,133.528 484.942,133.697 485.329 C 133.866 485.717,134.490 486.786,135.082 487.704 C 135.675 488.623,136.678 490.342,137.310 491.523 C 137.942 492.704,138.919 494.381,139.480 495.249 C 140.041 496.117,140.504 496.951,140.509 497.101 C 140.515 497.252,141.133 498.331,141.883 499.500 C 142.633 500.669,143.518 502.188,143.850 502.875 C 144.181 503.563,145.078 505.137,145.841 506.375 C 146.605 507.613,147.508 509.212,147.847 509.930 C 148.187 510.647,148.802 511.724,149.215 512.324 C 149.627 512.923,150.439 514.305,151.019 515.394 C 151.599 516.484,152.438 517.938,152.883 518.625 C 153.329 519.313,154.140 520.719,154.685 521.750 C 155.230 522.781,156.027 524.188,156.457 524.875 C 156.886 525.563,157.499 526.631,157.818 527.250 C 158.137 527.869,158.911 529.219,159.538 530.250 C 160.164 531.281,161.152 533.025,161.734 534.125 C 162.315 535.225,162.935 536.294,163.112 536.500 C 163.289 536.706,164.141 538.169,165.005 539.750 C 165.869 541.331,166.904 543.107,167.306 543.696 C 167.707 544.285,168.253 545.241,168.519 545.821 C 168.785 546.401,169.563 547.775,170.247 548.875 C 170.932 549.975,171.828 551.550,172.238 552.375 C 172.649 553.200,173.552 554.775,174.245 555.875 C 174.939 556.975,175.723 558.352,175.987 558.934 C 176.252 559.517,176.859 560.586,177.335 561.309 C 177.812 562.033,178.561 563.300,179.000 564.125 C 179.988 565.978,180.595 567.016,181.635 568.625 C 182.079 569.313,182.609 570.269,182.813 570.750 C 183.016 571.231,183.779 572.581,184.507 573.750 C 185.235 574.919,186.152 576.494,186.545 577.250 C 186.938 578.006,187.575 579.131,187.961 579.750 C 188.346 580.369,189.181 581.844,189.816 583.028 C 190.451 584.212,191.300 585.674,191.703 586.278 C 192.106 586.881,192.915 588.275,193.502 589.375 C 194.088 590.475,194.937 591.938,195.389 592.625 C 195.840 593.313,196.357 594.212,196.537 594.625 C 197.062 595.827,200.010 600.000,200.332 599.996 C 200.617 599.993,203.265 596.069,203.580 595.184 C 203.666 594.942,204.229 593.986,204.830 593.059 C 205.431 592.133,206.462 590.362,207.121 589.125 C 207.780 587.888,208.646 586.396,209.047 585.812 C 209.447 585.227,209.970 584.327,210.208 583.812 C 210.446 583.296,211.200 581.951,211.883 580.822 C 212.566 579.693,213.519 578.039,214.000 577.147 C 215.289 574.758,217.838 570.325,218.830 568.750 C 219.306 567.994,220.371 566.138,221.195 564.625 C 222.020 563.112,223.101 561.259,223.597 560.506 C 224.094 559.753,224.500 558.944,224.500 558.708 C 224.500 558.472,224.606 558.214,224.736 558.134 C 225.014 557.962,227.640 553.600,227.901 552.875 C 228.000 552.600,228.442 551.813,228.882 551.125 C 229.951 549.456,231.500 546.761,231.500 546.569 C 231.500 546.485,232.129 545.394,232.898 544.145 C 234.397 541.710,236.829 537.494,238.250 534.869 C 238.731 533.979,239.772 532.184,240.563 530.878 C 241.353 529.573,242.000 528.408,242.000 528.291 C 242.000 528.174,242.434 527.406,242.965 526.584 C 243.496 525.763,244.636 523.805,245.498 522.233 C 246.361 520.661,247.209 519.206,247.384 519.000 C 247.558 518.794,248.404 517.331,249.263 515.750 C 250.123 514.169,251.086 512.532,251.405 512.112 C 251.723 511.693,252.270 510.736,252.620 509.987 C 252.970 509.238,253.780 507.781,254.420 506.750 C 255.061 505.719,255.931 504.233,256.355 503.449 C 257.412 501.491,259.790 497.356,261.502 494.500 C 262.285 493.194,263.380 491.281,263.936 490.250 C 264.491 489.219,265.351 487.759,265.848 487.006 C 266.344 486.253,266.750 485.545,266.750 485.434 C 266.750 485.323,267.478 484.017,268.367 482.531 C 269.257 481.046,270.064 479.615,270.160 479.353 C 270.256 479.090,270.806 478.144,271.383 477.250 C 271.959 476.356,272.969 474.613,273.628 473.375 C 274.287 472.137,275.138 470.666,275.520 470.106 C 275.902 469.545,276.692 468.195,277.276 467.106 C 277.860 466.016,278.657 464.619,279.046 464.000 C 279.435 463.381,280.094 462.200,280.509 461.375 C 280.924 460.550,281.933 458.806,282.749 457.500 C 283.566 456.194,284.238 455.010,284.242 454.869 C 284.246 454.729,284.656 453.997,285.153 453.244 C 285.649 452.491,286.727 450.644,287.549 449.139 C 288.371 447.634,289.357 445.946,289.741 445.388 C 290.125 444.829,290.713 443.811,291.047 443.124 C 291.381 442.437,292.326 440.750,293.146 439.375 C 293.967 438.000,294.836 436.481,295.076 436.000 C 295.317 435.519,296.073 434.225,296.755 433.125 C 297.438 432.025,298.215 430.651,298.481 430.071 C 298.747 429.491,299.293 428.535,299.694 427.946 C 300.096 427.357,301.110 425.629,301.947 424.106 C 302.785 422.584,303.871 420.730,304.360 419.987 C 304.850 419.244,305.250 418.499,305.250 418.331 C 305.250 418.163,305.568 417.541,305.957 416.950 C 307.117 415.188,307.683 414.219,308.633 412.376 C 309.128 411.414,309.674 410.458,309.847 410.251 C 310.308 409.697,312.250 406.323,312.250 406.076 C 312.250 405.959,312.659 405.247,313.158 404.494 C 313.658 403.741,314.743 401.887,315.569 400.375 C 316.395 398.863,317.401 397.144,317.803 396.555 C 318.205 395.967,318.811 394.898,319.150 394.180 C 319.489 393.462,320.266 392.087,320.877 391.125 C 321.488 390.163,322.308 388.756,322.698 388.000 C 323.089 387.244,323.862 385.894,324.417 385.000 C 324.971 384.106,325.848 382.587,326.365 381.625 C 326.882 380.663,327.693 379.256,328.167 378.500 C 329.150 376.929,331.951 372.070,333.101 369.940 C 333.527 369.151,334.522 367.436,335.313 366.130 C 336.103 364.823,336.750 363.667,336.750 363.559 C 336.750 363.452,337.118 362.804,337.567 362.119 C 338.542 360.634,339.408 359.157,340.496 357.125 C 340.937 356.300,341.663 355.063,342.109 354.375 C 342.933 353.104,343.592 351.927,343.858 351.250 C 343.939 351.044,344.509 350.087,345.126 349.125 C 345.742 348.163,346.546 346.756,346.912 346.000 C 347.278 345.244,347.889 344.175,348.270 343.625 C 348.650 343.075,349.524 341.613,350.212 340.375 C 350.899 339.137,351.869 337.473,352.367 336.676 C 352.865 335.879,353.870 334.135,354.600 332.801 C 355.330 331.467,356.283 329.849,356.718 329.207 C 357.153 328.564,357.675 327.664,357.877 327.207 C 358.080 326.749,358.808 325.475,359.495 324.375 C 360.183 323.275,360.983 321.882,361.274 321.280 C 361.564 320.678,362.279 319.440,362.863 318.530 C 363.446 317.620,364.347 316.087,364.865 315.125 C 365.383 314.163,366.175 312.813,366.624 312.125 C 367.073 311.438,367.805 310.200,368.249 309.375 C 369.396 307.245,370.246 305.808,371.185 304.412 C 371.633 303.745,372.000 303.093,372.000 302.963 C 372.000 302.832,372.572 301.775,373.272 300.613 C 374.739 298.175,376.999 293.924,378.648 290.500 C 379.277 289.194,380.401 286.925,381.146 285.458 C 381.891 283.991,382.500 282.636,382.500 282.448 C 382.500 282.260,382.728 281.660,383.007 281.115 C 383.793 279.581,386.000 274.560,386.000 274.306 C 386.000 274.181,386.661 272.402,387.468 270.352 C 388.863 266.813,389.133 266.049,389.713 264.000 C 389.849 263.519,390.582 261.304,391.341 259.077 C 392.100 256.851,392.797 254.601,392.890 254.077 C 392.982 253.554,393.597 251.100,394.257 248.625 C 395.596 243.600,396.251 240.628,396.874 236.750 C 397.105 235.306,397.558 232.606,397.879 230.750 C 401.213 211.469,400.921 185.880,397.113 163.500 C 396.774 161.506,396.378 159.144,396.234 158.250 C 396.090 157.356,395.470 154.656,394.857 152.250 C 394.244 149.844,393.565 147.144,393.348 146.250 C 392.726 143.687,389.560 133.938,388.233 130.500 C 385.991 124.693,384.072 120.046,383.742 119.625 C 383.635 119.487,383.145 118.403,382.654 117.216 C 381.654 114.795,377.784 107.166,376.402 104.890 C 375.906 104.073,375.500 103.301,375.500 103.174 C 375.500 102.922,373.365 99.368,372.829 98.729 C 372.646 98.511,372.161 97.667,371.751 96.854 C 371.340 96.040,370.787 95.094,370.522 94.750 C 370.256 94.406,369.158 92.788,368.082 91.154 C 363.676 84.463,363.357 84.013,359.875 79.581 C 359.050 78.531,358.014 77.155,357.574 76.523 C 357.133 75.892,356.345 74.925,355.823 74.375 C 355.301 73.825,354.568 72.925,354.195 72.375 C 353.823 71.825,353.115 70.996,352.624 70.533 C 352.132 70.070,351.432 69.282,351.068 68.783 C 350.703 68.284,350.005 67.476,349.515 66.988 C 349.026 66.500,347.669 65.048,346.500 63.762 C 342.658 59.533,335.016 52.127,331.375 49.105 C 330.688 48.534,329.565 47.546,328.880 46.909 C 328.196 46.271,327.536 45.750,327.414 45.750 C 327.292 45.750,326.515 45.123,325.687 44.357 C 324.859 43.590,323.775 42.691,323.278 42.358 C 322.782 42.026,321.419 41.017,320.250 40.118 C 319.081 39.219,317.360 37.896,316.426 37.179 C 315.491 36.462,314.250 35.594,313.667 35.250 C 313.084 34.906,311.937 34.141,311.116 33.549 C 308.922 31.967,304.301 28.968,302.948 28.250 C 302.301 27.906,300.705 26.978,299.400 26.188 C 298.095 25.397,296.931 24.750,296.813 24.750 C 296.695 24.750,296.041 24.396,295.361 23.963 C 293.584 22.832,286.288 19.129,283.500 17.944 C 282.194 17.389,281.012 16.851,280.875 16.749 C 280.460 16.441,275.300 14.250,274.989 14.250 C 274.831 14.250,274.346 14.086,273.913 13.886 C 272.387 13.180,266.864 11.038,266.124 10.865 C 265.712 10.769,263.406 10.044,261.000 9.255 C 258.594 8.465,256.006 7.679,255.250 7.509 C 254.494 7.338,252.412 6.824,250.625 6.368 C 246.265 5.254,242.006 4.322,239.875 4.014 C 237.487 3.669,231.365 2.704,223.875 1.490 C 220.438 0.933,216.556 0.373,215.250 0.245 C 211.307 -0.141,187.667 -0.017,185.875 0.399 M212.625 26.883 C 214.137 27.097,217.738 27.661,220.625 28.138 C 223.512 28.615,226.100 29.003,226.375 28.999 C 228.298 28.975,240.323 31.326,245.625 32.764 C 247.137 33.175,248.527 33.508,248.714 33.505 C 249.249 33.497,257.351 36.194,260.767 37.517 C 261.808 37.920,262.795 38.250,262.961 38.250 C 263.127 38.250,264.044 38.644,265.000 39.125 C 265.956 39.606,266.893 40.000,267.084 40.000 C 267.274 40.000,268.092 40.336,268.902 40.747 C 269.712 41.158,270.518 41.495,270.692 41.497 C 270.867 41.499,271.448 41.777,271.984 42.115 C 272.520 42.453,273.277 42.810,273.667 42.907 C 274.056 43.004,274.894 43.402,275.528 43.792 C 276.162 44.181,276.811 44.500,276.970 44.500 C 277.130 44.500,277.690 44.772,278.216 45.104 C 278.742 45.436,280.174 46.192,281.399 46.785 C 282.623 47.378,284.091 48.175,284.661 48.557 C 285.231 48.938,285.773 49.250,285.866 49.250 C 285.959 49.250,286.525 49.587,287.124 49.999 C 287.722 50.411,288.474 50.851,288.794 50.977 C 289.113 51.104,289.762 51.498,290.236 51.853 C 290.710 52.209,291.244 52.500,291.424 52.500 C 291.603 52.500,291.750 52.595,291.750 52.710 C 291.750 52.826,292.284 53.213,292.938 53.571 C 293.591 53.928,294.350 54.395,294.625 54.608 C 294.900 54.821,295.744 55.408,296.500 55.914 C 297.256 56.419,297.913 56.926,297.958 57.041 C 298.004 57.156,298.162 57.250,298.310 57.250 C 298.457 57.250,298.947 57.531,299.397 57.875 C 299.848 58.219,300.331 58.500,300.471 58.500 C 300.611 58.500,300.815 58.647,300.925 58.826 C 301.035 59.006,302.137 59.877,303.375 60.763 C 304.613 61.649,305.738 62.516,305.875 62.690 C 306.012 62.865,306.421 63.202,306.783 63.441 C 307.986 64.235,312.000 67.535,312.000 67.731 C 312.000 67.837,312.220 68.025,312.488 68.149 C 313.667 68.695,323.270 77.877,328.540 83.499 C 330.706 85.808,337.723 94.158,338.750 95.646 C 339.138 96.209,341.876 99.924,342.673 100.968 C 342.921 101.295,343.294 101.819,343.500 102.133 C 343.706 102.447,344.438 103.530,345.125 104.540 C 345.813 105.549,346.421 106.487,346.476 106.625 C 346.634 107.014,347.853 108.615,348.063 108.708 C 348.166 108.754,348.250 108.908,348.250 109.051 C 348.250 109.306,348.832 110.300,350.438 112.790 C 350.884 113.483,351.250 114.171,351.250 114.318 C 351.250 114.465,351.420 114.774,351.628 115.004 C 351.837 115.234,352.329 116.030,352.723 116.774 C 353.117 117.517,353.845 118.856,354.341 119.750 C 355.340 121.549,359.250 129.404,359.250 129.611 C 359.250 129.683,359.587 130.439,360.000 131.290 C 360.412 132.142,360.750 132.955,360.750 133.097 C 360.750 133.239,361.078 134.035,361.479 134.865 C 362.114 136.182,362.632 137.497,363.992 141.250 C 365.717 146.008,367.855 152.894,368.999 157.375 C 370.006 161.317,370.184 162.092,370.432 163.625 C 370.565 164.450,370.909 166.306,371.195 167.750 C 373.444 179.101,374.636 199.357,373.762 211.375 C 373.602 213.575,373.376 216.725,373.260 218.375 C 373.013 221.872,372.038 228.345,370.980 233.500 C 370.571 235.494,370.240 237.324,370.243 237.567 C 370.247 237.809,369.898 239.272,369.467 240.817 C 369.036 242.361,368.544 244.244,368.373 245.000 C 367.796 247.556,365.717 254.416,364.852 256.625 C 364.528 257.450,363.931 259.081,363.524 260.250 C 362.294 263.783,361.994 264.570,361.359 265.922 C 361.024 266.635,360.750 267.336,360.750 267.480 C 360.750 267.623,360.400 268.502,359.973 269.433 C 359.545 270.363,358.938 271.688,358.623 272.375 C 358.308 273.063,357.598 274.581,357.047 275.750 C 356.495 276.919,355.863 278.269,355.642 278.750 C 355.132 279.863,352.638 284.555,351.257 287.000 C 350.674 288.031,349.887 289.438,349.508 290.125 C 348.000 292.857,347.687 293.390,347.378 293.750 C 347.202 293.956,346.735 294.726,346.341 295.460 C 345.385 297.243,344.989 297.936,344.250 299.125 C 343.617 300.144,343.496 300.353,342.052 302.915 C 341.600 303.718,340.783 305.106,340.237 306.000 C 339.691 306.894,339.110 307.906,338.946 308.250 C 338.781 308.594,338.332 309.345,337.948 309.920 C 337.564 310.495,337.250 311.070,337.250 311.199 C 337.250 311.327,337.027 311.717,336.754 312.064 C 336.480 312.411,335.963 313.242,335.603 313.910 C 335.243 314.578,334.625 315.688,334.230 316.375 C 333.834 317.063,333.378 317.878,333.215 318.188 C 333.053 318.497,332.825 318.750,332.710 318.750 C 332.594 318.750,332.500 318.968,332.500 319.235 C 332.500 319.502,332.385 319.792,332.244 319.878 C 332.104 319.965,331.641 320.731,331.216 321.581 C 330.791 322.430,330.298 323.294,330.120 323.500 C 329.941 323.706,329.525 324.381,329.195 325.000 C 328.404 326.482,328.035 327.130,327.143 328.600 C 326.735 329.273,326.226 330.135,326.013 330.514 C 324.370 333.440,323.860 334.321,322.984 335.750 C 322.437 336.644,321.821 337.712,321.616 338.125 C 321.412 338.538,320.800 339.606,320.257 340.500 C 319.714 341.394,318.874 342.876,318.391 343.794 C 317.908 344.712,317.397 345.534,317.256 345.621 C 317.115 345.708,317.000 345.998,317.000 346.265 C 317.000 346.532,316.916 346.751,316.813 346.752 C 316.631 346.753,316.293 347.280,315.130 349.375 C 314.825 349.925,314.147 351.106,313.623 352.000 C 312.359 354.156,311.282 356.032,310.412 357.595 C 310.020 358.299,309.542 359.053,309.350 359.270 C 309.157 359.487,309.000 359.797,309.000 359.960 C 309.000 360.122,308.606 360.815,308.125 361.500 C 307.644 362.185,307.250 362.878,307.250 363.040 C 307.250 363.203,307.096 363.513,306.907 363.730 C 306.718 363.947,306.198 364.800,305.750 365.625 C 305.302 366.450,304.782 367.303,304.593 367.520 C 304.404 367.737,304.250 368.040,304.250 368.195 C 304.250 368.349,303.912 368.975,303.500 369.586 C 303.087 370.197,302.750 370.797,302.750 370.918 C 302.750 371.039,302.553 371.408,302.313 371.738 C 301.846 372.378,300.700 374.350,299.640 376.340 C 299.284 377.008,298.770 377.839,298.496 378.186 C 298.223 378.533,298.000 378.927,298.000 379.060 C 298.000 379.193,297.663 379.803,297.250 380.414 C 296.837 381.025,296.500 381.610,296.500 381.714 C 296.500 381.817,296.139 382.459,295.698 383.139 C 295.256 383.819,294.691 384.769,294.441 385.250 C 293.506 387.051,292.365 388.989,292.063 389.290 C 291.891 389.460,291.750 389.747,291.750 389.928 C 291.750 390.108,291.356 390.815,290.875 391.500 C 290.394 392.185,290.000 392.908,290.000 393.108 C 290.000 393.307,289.885 393.541,289.745 393.628 C 289.605 393.715,289.199 394.368,288.842 395.080 C 288.485 395.792,288.048 396.544,287.872 396.750 C 287.695 396.956,287.217 397.744,286.809 398.500 C 285.506 400.914,284.690 402.358,284.265 403.000 C 284.037 403.344,283.711 403.906,283.539 404.250 C 283.368 404.594,282.792 405.606,282.259 406.500 C 281.726 407.394,280.998 408.672,280.641 409.340 C 280.285 410.008,279.770 410.839,279.496 411.186 C 279.223 411.533,279.000 411.927,279.000 412.060 C 279.000 412.193,278.663 412.803,278.250 413.414 C 277.837 414.025,277.500 414.649,277.500 414.801 C 277.500 414.953,277.238 415.426,276.918 415.851 C 276.598 416.277,276.165 416.962,275.957 417.375 C 275.093 419.082,274.260 420.537,273.528 421.623 C 273.100 422.257,272.750 422.932,272.750 423.123 C 272.750 423.314,272.635 423.542,272.494 423.628 C 272.354 423.715,271.895 424.425,271.476 425.206 C 270.312 427.370,269.173 429.330,268.688 430.004 C 268.447 430.338,268.250 430.811,268.250 431.056 C 268.250 431.300,268.158 431.500,268.046 431.500 C 267.934 431.500,267.652 431.866,267.419 432.313 C 267.187 432.759,266.713 433.575,266.368 434.125 C 266.022 434.675,265.548 435.519,265.314 436.000 C 265.080 436.481,264.576 437.345,264.194 437.920 C 263.812 438.495,263.500 439.069,263.500 439.195 C 263.500 439.322,263.184 439.864,262.797 440.400 C 262.410 440.936,261.922 441.712,261.711 442.125 C 260.502 444.498,260.136 445.162,259.853 445.500 C 259.681 445.706,259.241 446.438,258.875 447.125 C 258.510 447.813,257.775 449.106,257.242 450.000 C 256.709 450.894,255.976 452.211,255.612 452.927 C 255.249 453.643,254.794 454.360,254.601 454.520 C 254.408 454.680,254.250 454.968,254.250 455.159 C 254.250 455.351,253.871 456.097,253.409 456.816 C 252.218 458.668,251.627 459.670,250.765 461.294 C 250.350 462.075,249.896 462.785,249.756 462.872 C 249.615 462.958,249.500 463.193,249.500 463.392 C 249.500 463.592,249.106 464.315,248.625 465.000 C 248.144 465.685,247.750 466.353,247.750 466.485 C 247.750 466.617,247.412 467.225,247.000 467.836 C 246.587 468.447,246.250 469.055,246.250 469.186 C 246.250 469.318,245.934 469.864,245.547 470.400 C 245.160 470.936,244.672 471.712,244.461 472.125 C 243.252 474.498,242.886 475.162,242.603 475.500 C 242.431 475.706,241.991 476.438,241.625 477.125 C 241.260 477.813,240.529 479.106,240.002 480.000 C 238.132 483.170,237.429 484.391,236.691 485.750 C 236.280 486.506,235.787 487.303,235.597 487.520 C 235.406 487.737,235.250 488.030,235.250 488.172 C 235.250 488.314,234.977 488.833,234.643 489.325 C 234.309 489.817,233.594 491.057,233.055 492.081 C 232.516 493.105,231.720 494.467,231.287 495.109 C 230.854 495.750,230.500 496.376,230.500 496.500 C 230.500 496.624,230.162 497.225,229.750 497.836 C 229.338 498.447,229.000 499.032,229.000 499.135 C 229.000 499.239,228.606 499.916,228.125 500.641 C 227.644 501.367,227.250 502.055,227.250 502.172 C 227.250 502.288,226.969 502.798,226.625 503.304 C 226.281 503.810,226.000 504.398,226.000 504.612 C 226.000 504.825,225.916 505.001,225.813 505.002 C 225.631 505.003,225.293 505.530,224.130 507.625 C 223.825 508.175,223.151 509.356,222.632 510.250 C 222.113 511.144,221.406 512.381,221.062 513.000 C 220.717 513.619,220.300 514.294,220.134 514.500 C 219.846 514.859,219.244 515.962,218.156 518.125 C 217.879 518.675,217.590 519.181,217.514 519.250 C 217.092 519.630,216.309 520.968,216.161 521.563 C 216.067 521.941,215.894 522.250,215.776 522.250 C 215.657 522.250,215.413 522.616,215.232 523.063 C 215.051 523.509,214.531 524.422,214.076 525.091 C 213.622 525.759,213.250 526.414,213.250 526.546 C 213.250 526.677,212.936 527.255,212.552 527.830 C 212.168 528.405,211.719 529.156,211.554 529.500 C 211.390 529.844,210.807 530.856,210.259 531.750 C 209.711 532.644,209.124 533.656,208.954 534.000 C 208.785 534.344,208.276 535.218,207.823 535.942 C 207.370 536.667,207.000 537.417,207.000 537.609 C 207.000 537.801,206.903 537.996,206.785 538.042 C 206.579 538.121,205.523 539.926,204.101 542.625 C 203.739 543.313,203.299 544.044,203.122 544.250 C 202.946 544.456,202.535 545.075,202.210 545.625 C 200.861 547.908,200.608 548.247,200.250 548.247 C 199.920 548.247,197.750 545.354,197.750 544.914 C 197.750 544.821,197.382 544.212,196.932 543.560 C 196.482 542.908,195.978 542.094,195.811 541.750 C 195.645 541.406,195.116 540.450,194.636 539.625 C 194.156 538.800,193.561 537.731,193.313 537.250 C 193.065 536.769,192.556 535.899,192.181 535.317 C 191.807 534.736,191.500 534.172,191.500 534.064 C 191.500 533.956,191.106 533.284,190.625 532.569 C 190.144 531.854,189.750 531.161,189.750 531.028 C 189.750 530.895,189.586 530.622,189.386 530.421 C 189.185 530.221,188.670 529.397,188.241 528.591 C 187.045 526.346,185.922 524.401,185.437 523.738 C 185.197 523.408,185.000 523.039,185.000 522.918 C 185.000 522.797,184.662 522.197,184.250 521.586 C 183.838 520.975,183.500 520.349,183.500 520.195 C 183.500 520.040,183.346 519.737,183.157 519.520 C 182.968 519.303,182.473 518.506,182.057 517.750 C 180.333 514.621,179.440 513.103,179.105 512.730 C 178.910 512.513,178.750 512.185,178.750 512.000 C 178.750 511.815,178.594 511.487,178.403 511.270 C 178.213 511.053,177.723 510.256,177.315 509.500 C 176.907 508.744,176.168 507.450,175.672 506.625 C 175.177 505.800,174.418 504.459,173.986 503.644 C 173.553 502.830,173.042 502.006,172.850 501.814 C 172.657 501.622,172.500 501.330,172.500 501.165 C 172.500 501.001,172.222 500.457,171.883 499.958 C 171.544 499.459,170.796 498.167,170.222 497.088 C 169.647 496.008,168.982 494.844,168.743 494.500 C 168.310 493.877,167.799 492.997,166.495 490.625 C 166.117 489.938,165.405 488.700,164.914 487.875 C 164.423 487.050,163.618 485.644,163.125 484.750 C 162.632 483.856,161.823 482.450,161.327 481.625 C 160.832 480.800,160.156 479.630,159.825 479.025 C 158.505 476.610,157.923 475.597,157.511 475.000 C 157.273 474.656,156.909 474.038,156.700 473.625 C 156.375 472.982,155.770 471.909,153.506 467.960 C 153.297 467.595,152.753 466.638,152.298 465.835 C 151.843 465.032,151.032 463.644,150.496 462.750 C 149.960 461.856,149.380 460.844,149.207 460.500 C 149.034 460.156,148.613 459.425,148.270 458.875 C 147.928 458.325,147.464 457.538,147.240 457.125 C 147.015 456.712,146.408 455.644,145.891 454.750 C 145.374 453.856,144.610 452.506,144.193 451.750 C 143.777 450.994,143.282 450.197,143.093 449.980 C 142.904 449.763,142.750 449.460,142.750 449.305 C 142.750 449.151,142.412 448.525,142.000 447.914 C 141.588 447.303,141.250 446.693,141.250 446.560 C 141.250 446.427,141.027 446.033,140.754 445.686 C 140.480 445.339,139.965 444.508,139.609 443.840 C 139.252 443.172,138.528 441.894,138.000 441.000 C 137.472 440.106,136.740 438.813,136.375 438.125 C 136.009 437.438,135.551 436.697,135.355 436.480 C 135.160 436.263,135.000 435.914,135.000 435.704 C 135.000 435.494,134.606 434.806,134.125 434.176 C 133.644 433.546,133.250 432.926,133.250 432.800 C 133.250 432.673,132.977 432.167,132.643 431.675 C 132.309 431.183,131.594 429.943,131.055 428.919 C 130.516 427.895,129.720 426.533,129.287 425.891 C 128.854 425.250,128.500 424.584,128.500 424.412 C 128.500 424.241,128.359 423.960,128.188 423.790 C 127.875 423.479,126.661 421.400,125.830 419.750 C 125.587 419.269,125.076 418.405,124.694 417.830 C 124.312 417.255,124.000 416.691,124.000 416.575 C 124.000 416.460,123.719 415.952,123.375 415.446 C 123.031 414.941,122.469 414.015,122.125 413.388 C 121.781 412.762,121.209 411.719,120.853 411.070 C 120.497 410.420,119.990 409.587,119.728 409.219 C 119.465 408.850,119.250 408.479,119.250 408.394 C 119.250 408.309,118.947 407.764,118.577 407.183 C 118.208 406.601,117.574 405.506,117.171 404.750 C 116.767 403.994,116.338 403.337,116.218 403.292 C 116.098 403.246,116.000 403.038,116.000 402.830 C 116.000 402.622,115.785 402.150,115.522 401.781 C 115.260 401.413,114.753 400.580,114.397 399.930 C 114.041 399.281,113.469 398.238,113.125 397.612 C 112.781 396.985,112.219 396.059,111.875 395.554 C 111.531 395.048,111.250 394.545,111.250 394.437 C 111.250 394.328,110.957 393.796,110.598 393.254 C 109.922 392.232,109.619 391.708,108.404 389.460 C 108.007 388.726,107.473 387.857,107.216 387.529 C 106.960 387.201,106.750 386.723,106.750 386.466 C 106.750 386.210,106.658 386.000,106.546 386.000 C 106.434 386.000,106.152 385.634,105.919 385.187 C 105.686 384.741,105.256 383.981,104.964 383.500 C 104.672 383.019,104.098 382.006,103.687 381.250 C 103.277 380.494,102.730 379.576,102.471 379.211 C 102.212 378.846,102.000 378.479,102.000 378.394 C 102.000 378.309,101.706 377.775,101.347 377.206 C 100.760 376.275,100.439 375.714,99.015 373.125 C 98.788 372.712,98.319 371.925,97.973 371.375 C 97.627 370.825,97.197 370.009,97.017 369.563 C 96.837 369.116,96.604 368.750,96.500 368.750 C 96.396 368.750,96.163 368.394,95.983 367.960 C 95.803 367.525,95.283 366.628,94.828 365.966 C 94.373 365.304,94.000 364.639,94.000 364.489 C 94.000 364.338,93.686 363.745,93.302 363.170 C 92.918 362.595,92.469 361.844,92.304 361.500 C 92.140 361.156,91.559 360.144,91.013 359.250 C 90.467 358.356,89.672 357.006,89.246 356.250 C 88.821 355.494,88.139 354.313,87.731 353.625 C 87.324 352.938,86.793 351.981,86.551 351.500 C 86.310 351.019,85.806 350.149,85.431 349.567 C 85.057 348.986,84.750 348.442,84.750 348.360 C 84.750 348.277,84.356 347.617,83.875 346.891 C 83.394 346.166,83.000 345.489,83.000 345.385 C 83.000 345.282,82.663 344.697,82.250 344.086 C 81.838 343.475,81.500 342.864,81.500 342.727 C 81.500 342.441,80.466 340.915,80.188 340.792 C 80.084 340.746,80.000 340.563,80.000 340.384 C 80.000 340.053,79.604 339.348,76.556 334.250 C 76.104 333.494,75.627 332.620,75.497 332.309 C 75.366 331.998,75.038 331.435,74.767 331.059 C 74.496 330.683,73.994 329.869,73.652 329.250 C 73.310 328.631,72.625 327.394,72.130 326.500 C 71.635 325.606,70.786 324.144,70.243 323.250 C 69.700 322.356,69.088 321.288,68.884 320.875 C 68.679 320.462,68.063 319.394,67.516 318.500 C 66.968 317.606,66.150 316.218,65.698 315.415 C 65.245 314.612,64.706 313.655,64.499 313.290 C 64.293 312.924,63.853 312.175,63.521 311.625 C 63.189 311.075,62.671 310.175,62.370 309.625 C 61.436 307.922,60.790 306.802,60.176 305.820 C 58.699 303.457,58.000 302.191,58.000 301.879 C 58.000 301.694,57.916 301.504,57.813 301.458 C 57.516 301.326,56.500 299.800,56.500 299.486 C 56.500 299.330,56.247 298.850,55.938 298.420 C 55.450 297.742,54.365 295.854,51.816 291.250 C 51.474 290.631,50.904 289.563,50.551 288.875 C 50.197 288.188,49.591 287.155,49.204 286.580 C 48.817 286.005,48.500 285.381,48.500 285.192 C 48.500 285.004,48.391 284.741,48.259 284.609 C 48.126 284.476,47.301 282.963,46.425 281.246 C 45.549 279.530,44.648 277.788,44.423 277.375 C 43.900 276.417,40.750 269.777,40.750 269.632 C 40.750 269.572,40.403 268.758,39.978 267.824 C 38.296 264.122,37.740 262.834,37.408 261.875 C 36.277 258.604,36.036 257.966,35.272 256.220 C 34.994 255.585,34.661 254.629,34.531 254.095 C 34.401 253.562,34.016 252.281,33.676 251.250 C 32.334 247.178,31.406 244.078,31.241 243.125 C 31.147 242.575,30.829 241.169,30.535 240.000 C 28.729 232.811,26.827 221.413,26.466 215.625 C 25.577 201.357,26.024 186.796,27.650 177.018 C 27.980 175.034,28.250 173.129,28.250 172.785 C 28.250 172.441,28.632 170.464,29.098 168.392 C 29.565 166.320,30.056 164.006,30.191 163.250 C 30.729 160.229,33.583 150.038,34.988 146.125 C 35.235 145.438,35.635 144.313,35.877 143.625 C 36.120 142.938,36.584 141.700,36.910 140.875 C 37.235 140.050,37.501 139.235,37.501 139.064 C 37.500 138.892,37.894 137.900,38.375 136.858 C 38.856 135.816,39.250 134.879,39.250 134.776 C 39.250 134.673,39.588 133.892,40.000 133.040 C 40.413 132.189,40.750 131.368,40.750 131.217 C 40.750 131.066,41.017 130.421,41.343 129.784 C 41.670 129.146,42.909 126.656,44.098 124.250 C 46.980 118.416,48.905 114.798,49.643 113.829 C 49.977 113.391,50.250 112.923,50.250 112.789 C 50.250 112.654,50.616 111.974,51.063 111.277 C 51.509 110.580,52.156 109.539,52.500 108.963 C 52.844 108.387,53.491 107.375,53.938 106.714 C 54.384 106.053,54.750 105.437,54.750 105.344 C 54.750 105.252,55.124 104.715,55.581 104.151 C 56.038 103.587,56.486 102.956,56.577 102.750 C 56.667 102.544,57.247 101.700,57.866 100.875 C 58.484 100.050,59.176 99.037,59.405 98.625 C 59.633 98.213,59.911 97.815,60.023 97.742 C 60.135 97.670,60.838 96.770,61.586 95.742 C 63.002 93.797,63.401 93.287,64.807 91.625 C 65.273 91.075,66.580 89.482,67.711 88.086 C 68.843 86.689,69.933 85.483,70.134 85.406 C 70.335 85.329,70.500 85.128,70.500 84.961 C 70.500 84.793,70.894 84.255,71.375 83.765 C 75.283 79.791,76.750 78.249,76.750 78.118 C 76.750 78.034,77.275 77.495,77.917 76.920 C 78.559 76.345,79.831 75.144,80.743 74.250 C 81.656 73.356,83.174 71.950,84.115 71.125 C 85.661 69.771,86.251 69.247,87.875 67.785 C 88.150 67.538,89.275 66.613,90.375 65.730 C 91.475 64.847,92.465 63.984,92.575 63.813 C 92.685 63.641,92.910 63.499,93.075 63.497 C 93.240 63.496,93.756 63.102,94.223 62.622 C 94.689 62.143,95.167 61.750,95.285 61.750 C 95.511 61.750,98.280 59.681,99.048 58.938 C 99.297 58.697,99.649 58.500,99.831 58.500 C 100.014 58.500,100.427 58.219,100.750 57.875 C 101.073 57.531,101.442 57.250,101.570 57.250 C 101.698 57.250,102.264 56.884,102.827 56.438 C 103.390 55.991,104.040 55.513,104.272 55.375 C 104.503 55.237,105.506 54.619,106.499 54.000 C 107.492 53.381,108.602 52.717,108.965 52.524 C 109.328 52.331,109.682 52.087,109.753 51.981 C 109.823 51.876,110.441 51.506,111.128 51.159 C 111.814 50.813,112.762 50.241,113.236 49.890 C 113.710 49.538,114.190 49.250,114.304 49.250 C 114.417 49.250,114.986 48.948,115.567 48.580 C 116.149 48.211,117.412 47.527,118.375 47.060 C 121.074 45.750,122.090 45.206,122.520 44.838 C 122.737 44.652,123.059 44.500,123.236 44.500 C 123.413 44.500,124.079 44.232,124.716 43.904 C 126.343 43.068,129.692 41.500,129.853 41.500 C 129.927 41.500,130.724 41.163,131.625 40.750 C 132.526 40.337,133.385 40.000,133.535 40.000 C 133.685 40.000,134.648 39.606,135.676 39.125 C 136.704 38.644,137.666 38.250,137.814 38.250 C 137.961 38.250,138.936 37.927,139.979 37.531 C 141.022 37.136,142.438 36.642,143.125 36.434 C 143.813 36.225,144.881 35.878,145.500 35.661 C 147.190 35.071,152.157 33.602,154.000 33.149 C 160.903 31.449,164.169 30.733,166.000 30.517 C 171.316 29.890,187.899 27.246,189.000 26.850 C 190.391 26.350,209.029 26.376,212.625 26.883 " stroke="none" fill="#040404" fill-rule="evenodd"></path><path id="path1" d="M189.000 26.850 C 187.899 27.246,171.316 29.890,166.000 30.517 C 164.169 30.733,160.903 31.449,154.000 33.149 C 152.157 33.602,147.190 35.071,145.500 35.661 C 144.881 35.878,143.813 36.225,143.125 36.434 C 142.438 36.642,141.022 37.136,139.979 37.531 C 138.936 37.927,137.961 38.250,137.814 38.250 C 137.666 38.250,136.704 38.644,135.676 39.125 C 134.648 39.606,133.685 40.000,133.535 40.000 C 133.385 40.000,132.526 40.337,131.625 40.750 C 130.724 41.163,129.927 41.500,129.853 41.500 C 129.692 41.500,126.343 43.068,124.716 43.904 C 124.079 44.232,123.413 44.500,123.236 44.500 C 123.059 44.500,122.737 44.652,122.520 44.838 C 122.090 45.206,121.074 45.750,118.375 47.060 C 117.412 47.527,116.149 48.211,115.567 48.580 C 114.986 48.948,114.417 49.250,114.304 49.250 C 114.190 49.250,113.710 49.538,113.236 49.890 C 112.762 50.241,111.814 50.813,111.128 51.159 C 110.441 51.506,109.823 51.876,109.753 51.981 C 109.682 52.087,109.328 52.331,108.965 52.524 C 108.602 52.717,107.492 53.381,106.499 54.000 C 105.506 54.619,104.503 55.237,104.272 55.375 C 104.040 55.513,103.390 55.991,102.827 56.438 C 102.264 56.884,101.698 57.250,101.570 57.250 C 101.442 57.250,101.073 57.531,100.750 57.875 C 100.427 58.219,100.014 58.500,99.831 58.500 C 99.649 58.500,99.297 58.697,99.048 58.938 C 98.280 59.681,95.511 61.750,95.285 61.750 C 95.167 61.750,94.689 62.143,94.223 62.622 C 93.756 63.102,93.240 63.496,93.075 63.497 C 92.910 63.499,92.685 63.641,92.575 63.813 C 92.465 63.984,91.475 64.847,90.375 65.730 C 89.275 66.613,88.150 67.538,87.875 67.785 C 86.251 69.247,85.661 69.771,84.115 71.125 C 83.174 71.950,81.656 73.356,80.743 74.250 C 79.831 75.144,78.559 76.345,77.917 76.920 C 77.275 77.495,76.750 78.034,76.750 78.118 C 76.750 78.249,75.283 79.791,71.375 83.765 C 70.894 84.255,70.500 84.793,70.500 84.961 C 70.500 85.128,70.335 85.329,70.134 85.406 C 69.933 85.483,68.843 86.689,67.711 88.086 C 66.580 89.482,65.273 91.075,64.807 91.625 C 63.401 93.287,63.002 93.797,61.586 95.742 C 60.838 96.770,60.135 97.670,60.023 97.742 C 59.911 97.815,59.633 98.213,59.405 98.625 C 59.176 99.037,58.484 100.050,57.866 100.875 C 57.247 101.700,56.667 102.544,56.577 102.750 C 56.486 102.956,56.038 103.587,55.581 104.151 C 55.124 104.715,54.750 105.252,54.750 105.344 C 54.750 105.437,54.384 106.053,53.938 106.714 C 53.491 107.375,52.844 108.387,52.500 108.963 C 52.156 109.539,51.509 110.580,51.063 111.277 C 50.616 111.974,50.250 112.654,50.250 112.789 C 50.250 112.923,49.977 113.391,49.643 113.829 C 48.905 114.798,46.980 118.416,44.098 124.250 C 42.909 126.656,41.670 129.146,41.343 129.784 C 41.017 130.421,40.750 131.066,40.750 131.217 C 40.750 131.368,40.413 132.189,40.000 133.040 C 39.588 133.892,39.250 134.673,39.250 134.776 C 39.250 134.879,38.856 135.816,38.375 136.858 C 37.894 137.900,37.500 138.892,37.501 139.064 C 37.501 139.235,37.235 140.050,36.910 140.875 C 36.584 141.700,36.120 142.938,35.877 143.625 C 35.635 144.313,35.235 145.438,34.988 146.125 C 33.583 150.038,30.729 160.229,30.191 163.250 C 30.056 164.006,29.565 166.320,29.098 168.392 C 28.632 170.464,28.250 172.441,28.250 172.785 C 28.250 173.129,27.980 175.034,27.650 177.018 C 26.024 186.796,25.577 201.357,26.466 215.625 C 26.827 221.413,28.729 232.811,30.535 240.000 C 30.829 241.169,31.147 242.575,31.241 243.125 C 31.406 244.078,32.334 247.178,33.676 251.250 C 34.016 252.281,34.401 253.562,34.531 254.095 C 34.661 254.629,34.994 255.585,35.272 256.220 C 36.036 257.966,36.277 258.604,37.408 261.875 C 37.740 262.834,38.296 264.122,39.978 267.824 C 40.403 268.758,40.750 269.572,40.750 269.632 C 40.750 269.777,43.900 276.417,44.423 277.375 C 44.648 277.788,45.549 279.530,46.425 281.246 C 47.301 282.963,48.126 284.476,48.259 284.609 C 48.391 284.741,48.500 285.004,48.500 285.192 C 48.500 285.381,48.817 286.005,49.204 286.580 C 49.591 287.155,50.197 288.188,50.551 288.875 C 50.904 289.563,51.474 290.631,51.816 291.250 C 54.365 295.854,55.450 297.742,55.938 298.420 C 56.247 298.850,56.500 299.330,56.500 299.486 C 56.500 299.800,57.516 301.326,57.813 301.458 C 57.916 301.504,58.000 301.694,58.000 301.879 C 58.000 302.191,58.699 303.457,60.176 305.820 C 60.790 306.802,61.436 307.922,62.370 309.625 C 62.671 310.175,63.189 311.075,63.521 311.625 C 63.853 312.175,64.293 312.924,64.499 313.290 C 64.706 313.655,65.245 314.612,65.698 315.415 C 66.150 316.218,66.968 317.606,67.516 318.500 C 68.063 319.394,68.679 320.462,68.884 320.875 C 69.088 321.288,69.700 322.356,70.243 323.250 C 70.786 324.144,71.635 325.606,72.130 326.500 C 72.625 327.394,73.310 328.631,73.652 329.250 C 73.994 329.869,74.496 330.683,74.767 331.059 C 75.038 331.435,75.366 331.998,75.497 332.309 C 75.627 332.620,76.104 333.494,76.556 334.250 C 79.604 339.348,80.000 340.053,80.000 340.384 C 80.000 340.563,80.084 340.746,80.188 340.792 C 80.466 340.915,81.500 342.441,81.500 342.727 C 81.500 342.864,81.838 343.475,82.250 344.086 C 82.663 344.697,83.000 345.282,83.000 345.385 C 83.000 345.489,83.394 346.166,83.875 346.891 C 84.356 347.617,84.750 348.277,84.750 348.360 C 84.750 348.442,85.057 348.986,85.431 349.567 C 85.806 350.149,86.310 351.019,86.551 351.500 C 86.793 351.981,87.324 352.938,87.731 353.625 C 88.139 354.313,88.821 355.494,89.246 356.250 C 89.672 357.006,90.467 358.356,91.013 359.250 C 91.559 360.144,92.140 361.156,92.304 361.500 C 92.469 361.844,92.918 362.595,93.302 363.170 C 93.686 363.745,94.000 364.338,94.000 364.489 C 94.000 364.639,94.373 365.304,94.828 365.966 C 95.283 366.628,95.803 367.525,95.983 367.960 C 96.163 368.394,96.396 368.750,96.500 368.750 C 96.604 368.750,96.837 369.116,97.017 369.563 C 97.197 370.009,97.627 370.825,97.973 371.375 C 98.319 371.925,98.788 372.712,99.015 373.125 C 100.439 375.714,100.760 376.275,101.347 377.206 C 101.706 377.775,102.000 378.309,102.000 378.394 C 102.000 378.479,102.212 378.846,102.471 379.211 C 102.730 379.576,103.277 380.494,103.687 381.250 C 104.098 382.006,104.672 383.019,104.964 383.500 C 105.256 383.981,105.686 384.741,105.919 385.187 C 106.152 385.634,106.434 386.000,106.546 386.000 C 106.658 386.000,106.750 386.210,106.750 386.466 C 106.750 386.723,106.960 387.201,107.216 387.529 C 107.473 387.857,108.007 388.726,108.404 389.460 C 109.619 391.708,109.922 392.232,110.598 393.254 C 110.957 393.796,111.250 394.328,111.250 394.437 C 111.250 394.545,111.531 395.048,111.875 395.554 C 112.219 396.059,112.781 396.985,113.125 397.612 C 113.469 398.238,114.041 399.281,114.397 399.930 C 114.753 400.580,115.260 401.413,115.522 401.781 C 115.785 402.150,116.000 402.622,116.000 402.830 C 116.000 403.038,116.098 403.246,116.218 403.292 C 116.338 403.337,116.767 403.994,117.171 404.750 C 117.574 405.506,118.208 406.601,118.577 407.183 C 118.947 407.764,119.250 408.309,119.250 408.394 C 119.250 408.479,119.465 408.850,119.728 409.219 C 119.990 409.587,120.497 410.420,120.853 411.070 C 121.209 411.719,121.781 412.762,122.125 413.388 C 122.469 414.015,123.031 414.941,123.375 415.446 C 123.719 415.952,124.000 416.460,124.000 416.575 C 124.000 416.691,124.312 417.255,124.694 417.830 C 125.076 418.405,125.587 419.269,125.830 419.750 C 126.661 421.400,127.875 423.479,128.188 423.790 C 128.359 423.960,128.500 424.241,128.500 424.412 C 128.500 424.584,128.854 425.250,129.287 425.891 C 129.720 426.533,130.516 427.895,131.055 428.919 C 131.594 429.943,132.309 431.183,132.643 431.675 C 132.977 432.167,133.250 432.673,133.250 432.800 C 133.250 432.926,133.644 433.546,134.125 434.176 C 134.606 434.806,135.000 435.494,135.000 435.704 C 135.000 435.914,135.160 436.263,135.355 436.480 C 135.551 436.697,136.009 437.438,136.375 438.125 C 136.740 438.813,137.472 440.106,138.000 441.000 C 138.528 441.894,139.252 443.172,139.609 443.840 C 139.965 444.508,140.480 445.339,140.754 445.686 C 141.027 446.033,141.250 446.427,141.250 446.560 C 141.250 446.693,141.588 447.303,142.000 447.914 C 142.412 448.525,142.750 449.151,142.750 449.305 C 142.750 449.460,142.904 449.763,143.093 449.980 C 143.282 450.197,143.777 450.994,144.193 451.750 C 144.610 452.506,145.374 453.856,145.891 454.750 C 146.408 455.644,147.015 456.712,147.240 457.125 C 147.464 457.538,147.928 458.325,148.270 458.875 C 148.613 459.425,149.034 460.156,149.207 460.500 C 149.380 460.844,149.960 461.856,150.496 462.750 C 151.032 463.644,151.843 465.032,152.298 465.835 C 152.753 466.638,153.297 467.595,153.506 467.960 C 155.770 471.909,156.375 472.982,156.700 473.625 C 156.909 474.038,157.273 474.656,157.511 475.000 C 157.923 475.597,158.505 476.610,159.825 479.025 C 160.156 479.630,160.832 480.800,161.327 481.625 C 161.823 482.450,162.632 483.856,163.125 484.750 C 163.618 485.644,164.423 487.050,164.914 487.875 C 165.405 488.700,166.117 489.938,166.495 490.625 C 167.799 492.997,168.310 493.877,168.743 494.500 C 168.982 494.844,169.647 496.008,170.222 497.088 C 170.796 498.167,171.544 499.459,171.883 499.958 C 172.222 500.457,172.500 501.001,172.500 501.165 C 172.500 501.330,172.657 501.622,172.850 501.814 C 173.042 502.006,173.553 502.830,173.986 503.644 C 174.418 504.459,175.177 505.800,175.672 506.625 C 176.168 507.450,176.907 508.744,177.315 509.500 C 177.723 510.256,178.213 511.053,178.403 511.270 C 178.594 511.487,178.750 511.815,178.750 512.000 C 178.750 512.185,178.910 512.513,179.105 512.730 C 179.440 513.103,180.333 514.621,182.057 517.750 C 182.473 518.506,182.968 519.303,183.157 519.520 C 183.346 519.737,183.500 520.040,183.500 520.195 C 183.500 520.349,183.838 520.975,184.250 521.586 C 184.662 522.197,185.000 522.797,185.000 522.918 C 185.000 523.039,185.197 523.408,185.437 523.738 C 185.922 524.401,187.045 526.346,188.241 528.591 C 188.670 529.397,189.185 530.221,189.386 530.421 C 189.586 530.622,189.750 530.895,189.750 531.028 C 189.750 531.161,190.144 531.854,190.625 532.569 C 191.106 533.284,191.500 533.956,191.500 534.064 C 191.500 534.172,191.807 534.736,192.181 535.317 C 192.556 535.899,193.065 536.769,193.313 537.250 C 193.561 537.731,194.156 538.800,194.636 539.625 C 195.116 540.450,195.645 541.406,195.811 541.750 C 195.978 542.094,196.482 542.908,196.932 543.560 C 197.382 544.212,197.750 544.821,197.750 544.914 C 197.750 545.354,199.920 548.247,200.250 548.247 C 200.608 548.247,200.861 547.908,202.210 545.625 C 202.535 545.075,202.946 544.456,203.122 544.250 C 203.299 544.044,203.739 543.313,204.101 542.625 C 205.523 539.926,206.579 538.121,206.785 538.042 C 206.903 537.996,207.000 537.801,207.000 537.609 C 207.000 537.417,207.370 536.667,207.823 535.942 C 208.276 535.218,208.785 534.344,208.954 534.000 C 209.124 533.656,209.711 532.644,210.259 531.750 C 210.807 530.856,211.390 529.844,211.554 529.500 C 211.719 529.156,212.168 528.405,212.552 527.830 C 212.936 527.255,213.250 526.677,213.250 526.546 C 213.250 526.414,213.622 525.759,214.076 525.091 C 214.531 524.422,215.051 523.509,215.232 523.063 C 215.413 522.616,215.657 522.250,215.776 522.250 C 215.894 522.250,216.067 521.941,216.161 521.563 C 216.309 520.968,217.092 519.630,217.514 519.250 C 217.590 519.181,217.879 518.675,218.156 518.125 C 219.244 515.962,219.846 514.859,220.134 514.500 C 220.300 514.294,220.717 513.619,221.062 513.000 C 221.406 512.381,222.113 511.144,222.632 510.250 C 223.151 509.356,223.825 508.175,224.130 507.625 C 225.293 505.530,225.631 505.003,225.813 505.002 C 225.916 505.001,226.000 504.825,226.000 504.612 C 226.000 504.398,226.281 503.810,226.625 503.304 C 226.969 502.798,227.250 502.288,227.250 502.172 C 227.250 502.055,227.644 501.367,228.125 500.641 C 228.606 499.916,229.000 499.239,229.000 499.135 C 229.000 499.032,229.338 498.447,229.750 497.836 C 230.162 497.225,230.500 496.624,230.500 496.500 C 230.500 496.376,230.854 495.750,231.287 495.109 C 231.720 494.467,232.516 493.105,233.055 492.081 C 233.594 491.057,234.309 489.817,234.643 489.325 C 234.977 488.833,235.250 488.314,235.250 488.172 C 235.250 488.030,235.406 487.737,235.597 487.520 C 235.787 487.303,236.280 486.506,236.691 485.750 C 237.429 484.391,238.132 483.170,240.002 480.000 C 240.529 479.106,241.260 477.813,241.625 477.125 C 241.991 476.438,242.431 475.706,242.603 475.500 C 242.886 475.162,243.252 474.498,244.461 472.125 C 244.672 471.712,245.160 470.936,245.547 470.400 C 245.934 469.864,246.250 469.318,246.250 469.186 C 246.250 469.055,246.587 468.447,247.000 467.836 C 247.412 467.225,247.750 466.617,247.750 466.485 C 247.750 466.353,248.144 465.685,248.625 465.000 C 249.106 464.315,249.500 463.592,249.500 463.392 C 249.500 463.193,249.615 462.958,249.756 462.872 C 249.896 462.785,250.350 462.075,250.765 461.294 C 251.627 459.670,252.218 458.668,253.409 456.816 C 253.871 456.097,254.250 455.351,254.250 455.159 C 254.250 454.968,254.408 454.680,254.601 454.520 C 254.794 454.360,255.249 453.643,255.612 452.927 C 255.976 452.211,256.709 450.894,257.242 450.000 C 257.775 449.106,258.510 447.813,258.875 447.125 C 259.241 446.438,259.681 445.706,259.853 445.500 C 260.136 445.162,260.502 444.498,261.711 442.125 C 261.922 441.712,262.410 440.936,262.797 440.400 C 263.184 439.864,263.500 439.322,263.500 439.195 C 263.500 439.069,263.812 438.495,264.194 437.920 C 264.576 437.345,265.080 436.481,265.314 436.000 C 265.548 435.519,266.022 434.675,266.368 434.125 C 266.713 433.575,267.187 432.759,267.419 432.313 C 267.652 431.866,267.934 431.500,268.046 431.500 C 268.158 431.500,268.250 431.300,268.250 431.056 C 268.250 430.811,268.447 430.338,268.688 430.004 C 269.173 429.330,270.312 427.370,271.476 425.206 C 271.895 424.425,272.354 423.715,272.494 423.628 C 272.635 423.542,272.750 423.314,272.750 423.123 C 272.750 422.932,273.100 422.257,273.528 421.623 C 274.260 420.537,275.093 419.082,275.957 417.375 C 276.165 416.962,276.598 416.277,276.918 415.851 C 277.238 415.426,277.500 414.953,277.500 414.801 C 277.500 414.649,277.837 414.025,278.250 413.414 C 278.663 412.803,279.000 412.193,279.000 412.060 C 279.000 411.927,279.223 411.533,279.496 411.186 C 279.770 410.839,280.285 410.008,280.641 409.340 C 280.998 408.672,281.726 407.394,282.259 406.500 C 282.792 405.606,283.368 404.594,283.539 404.250 C 283.711 403.906,284.037 403.344,284.265 403.000 C 284.690 402.358,285.506 400.914,286.809 398.500 C 287.217 397.744,287.695 396.956,287.872 396.750 C 288.048 396.544,288.485 395.792,288.842 395.080 C 289.199 394.368,289.605 393.715,289.745 393.628 C 289.885 393.541,290.000 393.307,290.000 393.108 C 290.000 392.908,290.394 392.185,290.875 391.500 C 291.356 390.815,291.750 390.108,291.750 389.928 C 291.750 389.747,291.891 389.460,292.063 389.290 C 292.365 388.989,293.506 387.051,294.441 385.250 C 294.691 384.769,295.256 383.819,295.698 383.139 C 296.139 382.459,296.500 381.817,296.500 381.714 C 296.500 381.610,296.837 381.025,297.250 380.414 C 297.663 379.803,298.000 379.193,298.000 379.060 C 298.000 378.927,298.223 378.533,298.496 378.186 C 298.770 377.839,299.284 377.008,299.640 376.340 C 300.700 374.350,301.846 372.378,302.313 371.738 C 302.553 371.408,302.750 371.039,302.750 370.918 C 302.750 370.797,303.087 370.197,303.500 369.586 C 303.912 368.975,304.250 368.349,304.250 368.195 C 304.250 368.040,304.404 367.737,304.593 367.520 C 304.782 367.303,305.302 366.450,305.750 365.625 C 306.198 364.800,306.718 363.947,306.907 363.730 C 307.096 363.513,307.250 363.203,307.250 363.040 C 307.250 362.878,307.644 362.185,308.125 361.500 C 308.606 360.815,309.000 360.122,309.000 359.960 C 309.000 359.797,309.157 359.487,309.350 359.270 C 309.542 359.053,310.020 358.299,310.412 357.595 C 311.282 356.032,312.359 354.156,313.623 352.000 C 314.147 351.106,314.825 349.925,315.130 349.375 C 316.293 347.280,316.631 346.753,316.813 346.752 C 316.916 346.751,317.000 346.532,317.000 346.265 C 317.000 345.998,317.115 345.708,317.256 345.621 C 317.397 345.534,317.908 344.712,318.391 343.794 C 318.874 342.876,319.714 341.394,320.257 340.500 C 320.800 339.606,321.412 338.538,321.616 338.125 C 321.821 337.712,322.437 336.644,322.984 335.750 C 323.860 334.321,324.370 333.440,326.013 330.514 C 326.226 330.135,326.735 329.273,327.143 328.600 C 328.035 327.130,328.404 326.482,329.195 325.000 C 329.525 324.381,329.941 323.706,330.120 323.500 C 330.298 323.294,330.791 322.430,331.216 321.581 C 331.641 320.731,332.104 319.965,332.244 319.878 C 332.385 319.792,332.500 319.502,332.500 319.235 C 332.500 318.968,332.594 318.750,332.710 318.750 C 332.825 318.750,333.053 318.497,333.215 318.188 C 333.378 317.878,333.834 317.063,334.230 316.375 C 334.625 315.688,335.243 314.578,335.603 313.910 C 335.963 313.242,336.480 312.411,336.754 312.064 C 337.027 311.717,337.250 311.327,337.250 311.199 C 337.250 311.070,337.564 310.495,337.948 309.920 C 338.332 309.345,338.781 308.594,338.946 308.250 C 339.110 307.906,339.691 306.894,340.237 306.000 C 340.783 305.106,341.600 303.718,342.052 302.915 C 343.496 300.353,343.617 300.144,344.250 299.125 C 344.989 297.936,345.385 297.243,346.341 295.460 C 346.735 294.726,347.202 293.956,347.378 293.750 C 347.687 293.390,348.000 292.857,349.508 290.125 C 349.887 289.438,350.674 288.031,351.257 287.000 C 352.638 284.555,355.132 279.863,355.642 278.750 C 355.863 278.269,356.495 276.919,357.047 275.750 C 357.598 274.581,358.308 273.063,358.623 272.375 C 358.938 271.688,359.545 270.363,359.973 269.433 C 360.400 268.502,360.750 267.623,360.750 267.480 C 360.750 267.336,361.024 266.635,361.359 265.922 C 361.994 264.570,362.294 263.783,363.524 260.250 C 363.931 259.081,364.528 257.450,364.852 256.625 C 365.717 254.416,367.796 247.556,368.373 245.000 C 368.544 244.244,369.036 242.361,369.467 240.817 C 369.898 239.272,370.247 237.809,370.243 237.567 C 370.240 237.324,370.571 235.494,370.980 233.500 C 372.038 228.345,373.013 221.872,373.260 218.375 C 373.376 216.725,373.602 213.575,373.762 211.375 C 374.636 199.357,373.444 179.101,371.195 167.750 C 370.909 166.306,370.565 164.450,370.432 163.625 C 370.184 162.092,370.006 161.317,368.999 157.375 C 367.855 152.894,365.717 146.008,363.992 141.250 C 362.632 137.497,362.114 136.182,361.479 134.865 C 361.078 134.035,360.750 133.239,360.750 133.097 C 360.750 132.955,360.412 132.142,360.000 131.290 C 359.587 130.439,359.250 129.683,359.250 129.611 C 359.250 129.404,355.340 121.549,354.341 119.750 C 353.845 118.856,353.117 117.517,352.723 116.774 C 352.329 116.030,351.837 115.234,351.628 115.004 C 351.420 114.774,351.250 114.465,351.250 114.318 C 351.250 114.171,350.884 113.483,350.438 112.790 C 348.832 110.300,348.250 109.306,348.250 109.051 C 348.250 108.908,348.166 108.754,348.063 108.708 C 347.853 108.615,346.634 107.014,346.476 106.625 C 346.421 106.487,345.813 105.549,345.125 104.540 C 344.438 103.530,343.706 102.447,343.500 102.133 C 343.294 101.819,342.921 101.295,342.673 100.968 C 341.876 99.924,339.138 96.209,338.750 95.646 C 337.723 94.158,330.706 85.808,328.540 83.499 C 323.270 77.877,313.667 68.695,312.488 68.149 C 312.220 68.025,312.000 67.837,312.000 67.731 C 312.000 67.535,307.986 64.235,306.783 63.441 C 306.421 63.202,306.012 62.865,305.875 62.690 C 305.738 62.516,304.613 61.649,303.375 60.763 C 302.137 59.877,301.035 59.006,300.925 58.826 C 300.815 58.647,300.611 58.500,300.471 58.500 C 300.331 58.500,299.848 58.219,299.397 57.875 C 298.947 57.531,298.457 57.250,298.310 57.250 C 298.162 57.250,298.004 57.156,297.958 57.041 C 297.913 56.926,297.256 56.419,296.500 55.914 C 295.744 55.408,294.900 54.821,294.625 54.608 C 294.350 54.395,293.591 53.928,292.938 53.571 C 292.284 53.213,291.750 52.826,291.750 52.710 C 291.750 52.595,291.603 52.500,291.424 52.500 C 291.244 52.500,290.710 52.209,290.236 51.853 C 289.762 51.498,289.113 51.104,288.794 50.977 C 288.474 50.851,287.722 50.411,287.124 49.999 C 286.525 49.587,285.959 49.250,285.866 49.250 C 285.773 49.250,285.231 48.938,284.661 48.557 C 284.091 48.175,282.623 47.378,281.399 46.785 C 280.174 46.192,278.742 45.436,278.216 45.104 C 277.690 44.772,277.130 44.500,276.970 44.500 C 276.811 44.500,276.162 44.181,275.528 43.792 C 274.894 43.402,274.056 43.004,273.667 42.907 C 273.277 42.810,272.520 42.453,271.984 42.115 C 271.448 41.777,270.867 41.499,270.692 41.497 C 270.518 41.495,269.712 41.158,268.902 40.747 C 268.092 40.336,267.274 40.000,267.084 40.000 C 266.893 40.000,265.956 39.606,265.000 39.125 C 264.044 38.644,263.127 38.250,262.961 38.250 C 262.795 38.250,261.808 37.920,260.767 37.517 C 257.351 36.194,249.249 33.497,248.714 33.505 C 248.527 33.508,247.137 33.175,245.625 32.764 C 240.323 31.326,228.298 28.975,226.375 28.999 C 226.100 29.003,223.512 28.615,220.625 28.138 C 210.624 26.486,210.714 26.493,199.875 26.515 C 192.508 26.530,189.645 26.618,189.000 26.850 " stroke="none" fill="#fcdc3c" fill-rule="evenodd"></path></g></svg>